<svg width="175" height="178" viewBox="0 0 175 178" fill="none" xmlns="http://www.w3.org/2000/svg">
<rect x="50.5" y="2.5" width="122" height="122" stroke="#049C68" stroke-width="3"/>
<rect x="1" y="51" width="126" height="126" fill="#049C68"/>
<path d="M50 2L2 52" stroke="#049C68" stroke-width="3"/>
<path d="M173 125L126 176" stroke="#049C68" stroke-width="3"/>
<path d="M102.309 85.1C98.5758 85.1 96.0424 85.8 94.7091 87.2C93.4424 88.6 92.8091 90.9 92.8091 94.1V135.8C92.8091 141.6 95.9758 144.5 102.309 144.5V146H76.0091V144.5C79.6758 144.5 82.1758 143.833 83.5091 142.5C84.9091 141.1 85.6091 138.5 85.6091 134.7V89.7L60.7091 146H59.1091L35.1091 89.8L34.9091 132.2C34.9091 137 35.5758 140.267 36.9091 142C38.3091 143.667 40.8091 144.5 44.4091 144.5V146H22.3091V144.5C25.9758 144.5 28.5091 143.7 29.9091 142.1C31.3091 140.433 32.0091 137.133 32.0091 132.2V94.1C32.0091 90.5 31.3424 88.1 30.0091 86.9C28.6758 85.7 26.1758 85.1 22.5091 85.1V83.8H40.4091L62.2091 135.4L84.9091 83.8H102.309V85.1Z" fill="white"/>
</svg>
